#!OML:ASF X:\für Bonn\!DataBase\2005_08_12_Daniel\c3d\Daniel.ASF
:FULLY-SPECIFIED
:DEGREES
31
root 26.9462 17.9505 1.32294 -86.3942 86.3154 -458.339
lowerback 23.5122 -1.69946 3.88705
upperback 10.8966 -0.468216 0.218447
thorax -1.17771 0.267257 -1.87232
lowerneck 2.62747 2.00959 -5.67885
upperneck 10.868 2.93809 -0.130436
head 2.94597 1.31809 0.984695
rclavicle 1.19271e-014 6.16232e-015
rhumerus -114.582 -11.9955 77.1991
rradius 15.5827
rwrist 170.39
rhand -16.9727 13.5371
rfingers 7.12502
rthumb 9.26172 -16.2395
lclavicle 1.19271e-014 6.16232e-015
lhumerus -97.2092 11.2053 -6.27114
lradius 13.8524
lwrist -81.5579
lhand -5.45912 -13.1674
lfingers 7.12502
lthumb 20.3522 15.7861
rfemur -33.7089 -1.20279 25.043
rtibia 44.0506
rfoot -4.78229 0.0160634
rtoes -8.86607
lfemur -37.9556 -5.33668 -11.6291
ltibia 52.3491
lfoot -11.9082 -3.12852
ltoes -11.804
32
root 27.0066 17.874 1.32783 -84.5826 86.2046 -456.487
lowerback 23.5972 -1.66088 3.90952
upperback 10.6724 -0.428856 0.236581
thorax -1.46292 0.269232 -1.87613
lowerneck 2.88049 2.04757 -5.61565
upperneck 10.5419 2.96685 -0.238544
head 2.78981 1.33806 0.92998
rclavicle 1.39149e-014 7.55382e-015
rhumerus -115.118 -11.9572 77.5206
rradius 15.4784
rwrist 168.972
rhand -17.2846 13.6232
rfingers 7.12502
rthumb 8.96072 -16.1665
lclavicle 1.39149e-014 7.55382e-015
lhumerus -97.6919 11.499 -5.70239
lradius 13.9004
lwrist -79.8453
lhand -4.81776 -12.6862
lfingers 7.12502
lthumb 20.9685 16.2004
rfemur -33.8549 -1.03984 25.1636
rtibia 45.3546
rfoot -6.08084 0.348493
rtoes -9.19162
lfemur -38.1415 -5.63454 -11.3174
ltibia 53.5128
lfoot -13.3587 -3.36947
ltoes -11.6279
33
root 27.064 17.7836 1.33284 -82.3822 86.0955 -454.237
lowerback 23.7253 -1.60868 3.96174
upperback 10.4167 -0.367305 0.209636
thorax -1.8022 0.281702 -1.95117
lowerneck 3.07854 2.06003 -5.43404
upperneck 10.1723 2.96725 -0.406537
head 2.63272 1.34676 0.836166
rclavicle -1.41137e-014 -2.94201e-014
rhumerus -115.453 -12.1387 76.7571
rradius 15.0718
rwrist 166.261
rhand -17.3502 13.6414
rfingers 7.12502
rthumb 8.89742 -16.151
lclavicle -1.41137e-014 -2.94201e-014
lhumerus -98.3145 11.9645 -6.33186
lradius 13.9262
lwrist -79.2032
lhand -4.54555 -12.3813
lfingers 7.12502
lthumb 21.23 16.4761
rfemur -33.9961 -0.825325 25.2747
rtibia 46.6667
rfoot -7.43012 0.673446
rtoes -9.48697
lfemur -38.3029 -5.83294 -11.0629
ltibia 54.7206
lfoot -14.9002 -3.61087
ltoes -11.6489
34
root 27.1178 17.6758 1.33737 -80.4832 85.9598 -452.274
lowerback 23.8896 -1.56981 4.02073
upperback 10.1432 -0.3175 0.220664
thorax -2.17903 0.286127 -1.9868
lowerneck 3.12782 2.06669 -5.2729
upperneck 9.83693 2.97932 -0.694859
head 2.51623 1.35601 0.711182
rclavicle -2.5842e-015 -9.93923e-016
rhumerus -115.722 -12.595 75.4337
rradius 14.478
rwrist 162.671
rhand -17.2843 13.4837
rfingers 7.12502
rthumb 8.96101 -16.306
lclavicle -2.5842e-015 -9.93923e-016
lhumerus -98.9289 12.5757 -6.50758
lradius 14.0375
lwrist -78.0154
lhand -4.51309 -12.1538
lfingers 7.12502
lthumb 21.2612 16.7001
rfemur -34.1457 -0.627373 25.4234
rtibia 48.0248
rfoot -8.85153 0.954416
rtoes -9.85905
lfemur -38.5203 -5.99818 -10.839
ltibia 56.0237
lfoot -16.5312 -3.72916
ltoes -12.2442
35
root 27.1713 17.5613 1.34278 -78.671 85.8376 -450.412
lowerback 24.0559 -1.52721 4.09598
upperback 9.84976 -0.262028 0.193542
thorax -2.57811 0.292749 -2.07473
lowerneck 3.03478 2.04115 -4.99548
upperneck 9.48631 2.95797 -1.03274
head 2.42332 1.3502 0.553557
rclavicle -5.96354e-015 -1.23246e-014
rhumerus -115.773 -13.4033 72.9254
rradius 13.6533
rwrist 157.806
rhand -17.2414 13.2654
rfingers 7.12502
rthumb 9.00241 -16.5225
lclavicle -5.96354e-015 -1.23246e-014
lhumerus -99.2665 13.3549 -5.71044
lradius 14.2228
lwrist -75.6573
lhand -4.73044 -12.1532
lfingers 7.12502
lthumb 21.0524 16.724
rfemur -34.322 -0.43083 25.5605
rtibia 49.4076
rfoot -10.3687 1.2674
rtoes -10.047
lfemur -38.8276 -6.12132 -10.6746
ltibia 57.3977
lfoot -18.1809 -3.74255
ltoes -12.9868
